# xmcd
#
# Track frame offsets:
#	150
#	15002
#	27135
#	42821
#	53509
#	69178
#	88924
#	105289
#	123341
#	133521
#	155369
#	165323
#	183887
#	202976
#	220613
#	232935
#
# Disc length: 3268 seconds
#
# Revision: 1
# Processed by: cddbd v1.5.1PL0 Copyright (c) Steve Scherf et al.
# Submitted via: audiograbber 1.83.01
#
DISCID=ae0cc210
DTITLE=Various Artist - CO TO - The best of country music
DYEAR=1998
DGENRE=Country
TTITLE0=Potkal jsem tulaka
TTITLE1=Jesse James
TTITLE2=Zatoka
TTITLE3=Mavej
TTITLE4=Casey Jones
TTITLE5=Zuzana
TTITLE6=Wabash Cannon Ball
TTITLE7=Tonka
TTITLE8=Fryda - Instr.
TTITLE9=Toulava hul
TTITLE10=Vuz do Tennessee
TTITLE11=Quantanamo
TTITLE12=John Hardy
TTITLE13=Reuben James
TTITLE14=Nelly Bly
TTITLE15=Zahranicni student
EXTD=ASKUM, 1998, Brno, Czech Republic
EXTT0=
EXTT1=
EXTT2=
EXTT3=
EXTT4=
EXTT5=
EXTT6=
EXTT7=
EXTT8=
EXTT9=
EXTT10=
EXTT11=
EXTT12=
EXTT13=
EXTT14=
EXTT15=
PLAYORDER=
